<?xml version="1.0" encoding="UTF-8" standalone="no"?>
<!-- Created with Inkscape (http://www.inkscape.org/) -->

<svg
   xmlns:dc="http://purl.org/dc/elements/1.1/"
   xmlns:cc="http://creativecommons.org/ns#"
   xmlns:rdf="http://www.w3.org/1999/02/22-rdf-syntax-ns#"
   xmlns:svg="http://www.w3.org/2000/svg"
   xmlns="http://www.w3.org/2000/svg"
   xmlns:sodipodi="http://sodipodi.sourceforge.net/DTD/sodipodi-0.dtd"
   xmlns:inkscape="http://www.inkscape.org/namespaces/inkscape"
   width="210mm"
   height="297mm"
   viewBox="0 0 210 297"
   version="1.1"
   id="svg8"
   inkscape:version="0.92.4 5da689c313, 2019-01-14"
   sodipodi:docname="newlogo.svg">
  <defs
     id="defs2">
    <filter
       inkscape:collect="always"
       style="color-interpolation-filters:sRGB"
       id="filter1497"
       x="-0.025752534"
       width="1.0515051"
       y="-0.022470798"
       height="1.0449416">
      <feGaussianBlur
         inkscape:collect="always"
         stdDeviation="3.1833995"
         id="feGaussianBlur1499" />
    </filter>
  </defs>
  <sodipodi:namedview
     id="base"
     pagecolor="#ffffff"
     bordercolor="#666666"
     borderopacity="1.0"
     inkscape:pageopacity="0.0"
     inkscape:pageshadow="2"
     inkscape:zoom="0.25"
     inkscape:cx="11637.706"
     inkscape:cy="1311.7632"
     inkscape:document-units="px"
     inkscape:current-layer="layer1"
     showgrid="false"
     inkscape:window-width="1920"
     inkscape:window-height="1054"
     inkscape:window-x="0"
     inkscape:window-y="0"
     inkscape:window-maximized="1"
     showborder="false"
     showguides="true"
     inkscape:snap-smooth-nodes="true"
     inkscape:guide-bbox="true"
     inkscape:snap-global="false">
    <sodipodi:guide
       position="3043.5585,236.48008"
       orientation="0,1"
       id="guide977"
       inkscape:locked="false" />
    <sodipodi:guide
       position="3036.3583,145.84425"
       orientation="0,1"
       id="guide979"
       inkscape:locked="false" />
    <sodipodi:guide
       position="624.74718,286.35478"
       orientation="0,1"
       id="guide1015"
       inkscape:locked="false" />
    <sodipodi:guide
       position="736.93051,95.292823"
       orientation="0,1"
       id="guide1019"
       inkscape:locked="false" />
  </sodipodi:namedview>
  <metadata
     id="metadata5">
    <rdf:RDF>
      <cc:Work
         rdf:about="">
        <dc:format>image/svg+xml</dc:format>
        <dc:type
           rdf:resource="http://purl.org/dc/dcmitype/StillImage" />
        <dc:title></dc:title>
      </cc:Work>
    </rdf:RDF>
  </metadata>
  <g
     inkscape:label="Layer 1"
     inkscape:groupmode="layer"
     id="layer1">
    <circle
       style="opacity:0.5;fill:none;fill-opacity:1;stroke:#000000;stroke-width:23.8125;stroke-miterlimit:4;stroke-dasharray:none"
       id="path836"
       cx="-221.00917"
       cy="-362.29736"
       r="33.072914" />
    <path
       style="opacity:0.5;fill:#000000;fill-opacity:1;stroke:none;stroke-width:23.8125;stroke-miterlimit:4;stroke-dasharray:none"
       d="m 243.83836,-212.33928 h 23.8125 v 179.916676 h -23.8125 z"
       id="rect845"
       inkscape:connector-curvature="0" />
    <path
       style="color:#000000;font-style:normal;font-variant:normal;font-weight:normal;font-stretch:normal;font-size:medium;line-height:normal;font-family:sans-serif;font-variant-ligatures:normal;font-variant-position:normal;font-variant-caps:normal;font-variant-numeric:normal;font-variant-alternates:normal;font-feature-settings:normal;text-indent:0;text-align:start;text-decoration:none;text-decoration-line:none;text-decoration-style:solid;text-decoration-color:#000000;letter-spacing:normal;word-spacing:normal;text-transform:none;writing-mode:lr-tb;direction:ltr;text-orientation:mixed;dominant-baseline:auto;baseline-shift:baseline;text-anchor:start;white-space:normal;shape-padding:0;clip-rule:nonzero;display:inline;overflow:visible;visibility:visible;opacity:0.5;isolation:auto;mix-blend-mode:normal;color-interpolation:sRGB;color-interpolation-filters:linearRGB;solid-color:#000000;solid-opacity:1;vector-effect:none;fill:#000000;fill-opacity:1;fill-rule:nonzero;stroke:none;stroke-width:23.8125;stroke-linecap:butt;stroke-linejoin:miter;stroke-miterlimit:4;stroke-dasharray:none;stroke-dashoffset:0;stroke-opacity:1;color-rendering:auto;image-rendering:auto;shape-rendering:auto;text-rendering:auto;enable-background:accumulate"
       d="m 170.19986,-154.59657 c -24.70028,0 -44.97814,20.27837 -44.97814,44.97865 h 23.8125 c 0,-11.83105 9.33459,-21.16615 21.16564,-21.16615 11.83105,0 21.16821,9.3351 21.16821,21.16615 h 23.8125 c 0,-24.70028 -20.28043,-44.97865 -44.98071,-44.97865 z"
       id="circle938"
       inkscape:connector-curvature="0" />
    <path
       style="color:#000000;font-style:normal;font-variant:normal;font-weight:normal;font-stretch:normal;font-size:medium;line-height:normal;font-family:sans-serif;font-variant-ligatures:normal;font-variant-position:normal;font-variant-caps:normal;font-variant-numeric:normal;font-variant-alternates:normal;font-feature-settings:normal;text-indent:0;text-align:start;text-decoration:none;text-decoration-line:none;text-decoration-style:solid;text-decoration-color:#000000;letter-spacing:normal;word-spacing:normal;text-transform:none;writing-mode:lr-tb;direction:ltr;text-orientation:mixed;dominant-baseline:auto;baseline-shift:baseline;text-anchor:start;white-space:normal;shape-padding:0;clip-rule:nonzero;display:inline;overflow:visible;visibility:visible;opacity:0.5;isolation:auto;mix-blend-mode:normal;color-interpolation:sRGB;color-interpolation-filters:linearRGB;solid-color:#000000;solid-opacity:1;vector-effect:none;fill:#000000;fill-opacity:1;fill-rule:nonzero;stroke:none;stroke-width:23.8125;stroke-linecap:butt;stroke-linejoin:miter;stroke-miterlimit:4;stroke-dasharray:none;stroke-dashoffset:0;stroke-opacity:1;color-rendering:auto;image-rendering:auto;shape-rendering:auto;text-rendering:auto;enable-background:accumulate"
       d="m 49.287358,-137.76989 c -24.700282,0 -44.980469,20.27823 -44.980469,44.978509 0,24.70029 20.280187,44.980467 44.980469,44.980467 24.700281,0 44.978516,-20.280177 44.978516,-44.980467 0,-24.700279 -20.278235,-44.978509 -44.978516,-44.978509 z m 0,23.8125 c 11.831051,0 21.166016,9.33496 21.166016,21.166009 0,11.83106 -9.334965,21.16797 -21.166016,21.16797 -11.831051,0 -21.16797,-9.33691 -21.167969,-21.16797 0,-11.831049 9.336918,-21.166009 21.167969,-21.166009 z"
       id="circle953"
       inkscape:connector-curvature="0" />
    <path
       style="color:#000000;font-style:normal;font-variant:normal;font-weight:normal;font-stretch:normal;font-size:medium;line-height:normal;font-family:sans-serif;font-variant-ligatures:normal;font-variant-position:normal;font-variant-caps:normal;font-variant-numeric:normal;font-variant-alternates:normal;font-feature-settings:normal;text-indent:0;text-align:start;text-decoration:none;text-decoration-line:none;text-decoration-style:solid;text-decoration-color:#000000;letter-spacing:normal;word-spacing:normal;text-transform:none;writing-mode:lr-tb;direction:ltr;text-orientation:mixed;dominant-baseline:auto;baseline-shift:baseline;text-anchor:start;white-space:normal;shape-padding:0;clip-rule:nonzero;display:inline;overflow:visible;visibility:visible;opacity:0.5;isolation:auto;mix-blend-mode:normal;color-interpolation:sRGB;color-interpolation-filters:linearRGB;solid-color:#000000;solid-opacity:1;vector-effect:none;fill:#000000;fill-opacity:1;fill-rule:nonzero;stroke:none;stroke-width:23.8125;stroke-linecap:butt;stroke-linejoin:miter;stroke-miterlimit:4;stroke-dasharray:none;stroke-dashoffset:0;stroke-opacity:1;color-rendering:auto;image-rendering:auto;shape-rendering:auto;text-rendering:auto;enable-background:accumulate"
       d="m 170.19994,-58.058991 c -24.70028,0 -44.97813,20.27837 -44.97813,44.97865 h 23.8125 c 0,-11.83105 9.33458,-21.16615 21.16563,-21.16615 3.5e-4,0 6.9e-4,0 0.001,0 v -23.8125 c -3.5e-4,0 -6.9e-4,0 -0.001,0 z"
       id="path957"
       inkscape:connector-curvature="0" />
    <path
       style="color:#000000;font-style:normal;font-variant:normal;font-weight:normal;font-stretch:normal;font-size:medium;line-height:normal;font-family:sans-serif;font-variant-ligatures:normal;font-variant-position:normal;font-variant-caps:normal;font-variant-numeric:normal;font-variant-alternates:normal;font-feature-settings:normal;text-indent:0;text-align:start;text-decoration:none;text-decoration-line:none;text-decoration-style:solid;text-decoration-color:#000000;letter-spacing:normal;word-spacing:normal;text-transform:none;writing-mode:lr-tb;direction:ltr;text-orientation:mixed;dominant-baseline:auto;baseline-shift:baseline;text-anchor:start;white-space:normal;shape-padding:0;clip-rule:nonzero;display:inline;overflow:visible;visibility:visible;opacity:0.5;isolation:auto;mix-blend-mode:normal;color-interpolation:sRGB;color-interpolation-filters:linearRGB;solid-color:#000000;solid-opacity:1;vector-effect:none;fill:#000000;fill-opacity:1;fill-rule:nonzero;stroke:none;stroke-width:90;stroke-linecap:butt;stroke-linejoin:miter;stroke-miterlimit:4;stroke-dasharray:none;stroke-dashoffset:0;stroke-opacity:1;color-rendering:auto;image-rendering:auto;shape-rendering:auto;text-rendering:auto;enable-background:accumulate"
       d="M 2027.5957 231.29492 C 1934.2403 231.29492 1857.5918 307.93756 1857.5918 401.29297 C 1857.5918 494.6484 1934.2403 571.29687 2027.5957 571.29688 C 2056.4498 571.29688 2083.7023 563.96643 2107.5938 551.0918 L 2107.5938 571.29688 L 2197.5938 571.29688 L 2197.5938 401.29297 C 2197.5938 402.59091 2197.5724 403.88447 2197.543 405.17578 C 2197.5724 403.88435 2197.5938 402.59102 2197.5938 401.29297 C 2197.5938 307.93756 2120.9511 231.29492 2027.5957 231.29492 z M 2027.5957 321.29492 C 2072.3115 321.29492 2107.5938 356.57717 2107.5938 401.29297 C 2107.5938 446.00879 2072.3115 481.29688 2027.5957 481.29688 C 1982.8799 481.29688 1947.5918 446.00879 1947.5918 401.29297 C 1947.5918 356.57717 1982.8799 321.29492 2027.5957 321.29492 z M 2197.5156 406.2207 C 2197.4824 407.36668 2197.4409 408.50995 2197.3848 409.65039 C 2197.4409 408.51017 2197.4824 407.36646 2197.5156 406.2207 z M 2197.3652 410.08789 C 2197.2995 411.35522 2197.2168 412.61876 2197.123 413.87891 C 2197.2168 412.61854 2197.2995 411.35543 2197.3652 410.08789 z M 2197.0352 414.9668 C 2196.9562 415.94178 2196.869 416.91432 2196.7734 417.88477 C 2196.869 416.91421 2196.9562 415.94188 2197.0352 414.9668 z M 2196.6738 418.90039 C 2196.5449 420.13351 2196.4036 421.36246 2196.248 422.58789 C 2196.4036 421.36269 2196.5449 420.13327 2196.6738 418.90039 z M 2196.1445 423.35938 C 2196.0075 424.40048 2195.8612 425.43932 2195.7051 426.47461 C 2195.8612 425.43908 2196.0074 424.40071 2196.1445 423.35938 z M 2195.5625 427.41406 C 2195.3736 428.62076 2195.1735 429.82306 2194.959 431.02148 C 2195.1734 429.82322 2195.3736 428.62059 2195.5625 427.41406 z M 2194.793 431.9082 C 2194.6165 432.86444 2194.4328 433.8188 2194.2402 434.76953 C 2194.4328 433.81865 2194.6165 432.86458 2194.793 431.9082 z M 2194.0117 435.88867 C 2193.7583 437.09728 2193.496 438.30264 2193.2168 439.50195 C 2193.4959 438.30301 2193.7584 437.0969 2194.0117 435.88867 z M 2193.1895 439.61523 C 2192.9206 440.76655 2192.6361 441.91223 2192.3438 443.05469 C 2192.6362 441.9117 2192.9205 440.76709 2193.1895 439.61523 z M 2192.0566 444.1543 C 2191.7991 445.13295 2191.5344 446.10822 2191.2598 447.08008 C 2191.5342 446.10868 2191.7993 445.13247 2192.0566 444.1543 z M 2189.502 452.88281 C 2189.3835 453.2507 2189.2635 453.61756 2189.1426 453.98438 C 2189.2634 453.61764 2189.3836 453.25062 2189.502 452.88281 z M 2187.6621 458.2832 C 2187.5739 458.52822 2187.4897 458.77502 2187.4004 459.01953 C 2187.4896 458.77499 2187.574 458.52825 2187.6621 458.2832 z M 2185.5293 463.9082 C 2185.4069 464.21358 2185.2784 464.51579 2185.1543 464.82031 C 2185.2784 464.51577 2185.407 464.2136 2185.5293 463.9082 z M 2183.4512 468.85156 C 2183.2962 469.20546 2183.1417 469.55945 2182.9844 469.91211 C 2183.1417 469.55947 2183.2962 469.20544 2183.4512 468.85156 z M 2178.4395 479.3125 C 2178.2655 479.64568 2178.0882 479.97669 2177.9121 480.30859 C 2178.0881 479.97673 2178.2656 479.64564 2178.4395 479.3125 z M 2175.7871 484.19336 C 2175.6447 484.44571 2175.505 484.69961 2175.3613 484.95117 C 2175.5049 484.69963 2175.6448 484.44569 2175.7871 484.19336 z M 2169.832 493.96875 C 2169.6552 494.2383 2169.4772 494.50689 2169.2988 494.77539 C 2169.4771 494.50691 2169.6552 494.23828 2169.832 493.96875 z M 2163.1387 503.46484 C 2163.031 503.60698 2162.9206 503.74688 2162.8125 503.88867 C 2162.9206 503.74686 2163.031 503.607 2163.1387 503.46484 z M 2159.7695 507.76367 C 2159.64 507.92387 2159.511 508.08442 2159.3809 508.24414 C 2159.511 508.0844 2159.64 507.92389 2159.7695 507.76367 z M 2152.2793 516.42383 C 2152.1635 516.549 2152.0478 516.674 2151.9316 516.79883 C 2152.0477 516.67405 2152.1636 516.54895 2152.2793 516.42383 z M 2140.1914 528.27344 C 2140.0838 528.36902 2139.977 528.46523 2139.8691 528.56055 C 2139.9769 528.46523 2140.0839 528.36902 2140.1914 528.27344 z M 2117.5215 545.30078 C 2117.4398 545.35216 2117.3572 545.40188 2117.2754 545.45312 C 2117.3571 545.4019 2117.4398 545.35214 2117.5215 545.30078 z "
       transform="scale(0.26458333)"
       id="path970" />
    <path
       id="path1013"
       d="m 644.60375,151.15563 c 24.70028,0 44.98019,-20.27836 44.98019,-44.97865 0,-24.70029 -20.27991,-44.9802 -44.98019,-44.9802 -7.63432,0 -14.84487,1.93951 -21.16617,5.34593 l 1.30962,-55.897478 h -23.8125 l -1.30962,95.531748 c 0,-0.34341 0.006,-0.68567 0.0134,-1.02733 -0.008,0.34169 -0.0134,0.68389 -0.0134,1.02733 0,24.70029 20.27838,44.97865 44.97867,44.97865 z m 0,-23.8125 c -11.83106,0 -21.16617,-9.33509 -21.16617,-21.16615 0,-11.83106 9.33511,-21.1677 21.16617,-21.1677 11.83105,0 21.1677,9.33664 21.1677,21.1677 0,11.83106 -9.33665,21.16615 -21.1677,21.16615 z m -44.95798,-22.46995 c 0.009,-0.3032 0.0198,-0.60569 0.0346,-0.90743 -0.0148,0.30168 -0.0258,0.60429 -0.0346,0.90743 z m 0.0398,-1.02319 c 0.0174,-0.33531 0.0393,-0.66963 0.0641,-1.00304 -0.0248,0.33347 -0.0467,0.66767 -0.0641,1.00304 z m 0.0873,-1.29088 c 0.0209,-0.25796 0.044,-0.51528 0.0693,-0.77204 -0.0253,0.25679 -0.0484,0.51405 -0.0693,0.77204 z m 0.0956,-1.04076 c 0.0341,-0.32626 0.0715,-0.65142 0.11266,-0.97565 -0.0412,0.32417 -0.0786,0.64945 -0.11266,0.97565 z m 0.14004,-1.17977 c 0.0362,-0.27546 0.075,-0.55032 0.11626,-0.82424 -0.0413,0.27398 -0.08,0.54872 -0.11626,0.82424 z m 0.15399,-1.07281 c 0.05,-0.31927 0.10292,-0.63738 0.15968,-0.95446 -0.0567,0.31704 -0.1097,0.63524 -0.15968,0.95446 z m 0.2036,-1.18907 c 0.0467,-0.253 0.0953,-0.50551 0.14626,-0.75706 -0.051,0.25159 -0.0996,0.50402 -0.14626,0.75706 z m 0.20672,-1.05317 c 0.067,-0.31977 0.13644,-0.63869 0.21031,-0.95601 -0.0738,0.31722 -0.14329,0.63634 -0.21031,0.95601 z m 0.21754,-0.98598 c 0.0711,-0.30462 0.14642,-0.60775 0.22376,-0.91003 -0.0774,0.30242 -0.15259,0.60527 -0.22376,0.91003 z m 0.29974,-1.20096 c 0.0681,-0.25894 0.13817,-0.51698 0.21082,-0.77412 -0.0726,0.25702 -0.14274,0.51531 -0.21082,0.77412 z m 0.67591,-2.30942 c 0.0314,-0.0973 0.0631,-0.1944 0.0951,-0.29146 -0.032,0.097 -0.0638,0.19414 -0.0951,0.29146 z m 0.48681,-1.42886 c 0.0233,-0.0648 0.0456,-0.13012 0.0692,-0.19482 -0.0236,0.0647 -0.0459,0.12999 -0.0692,0.19482 z m 0.5643,-1.48828 c 0.0324,-0.0808 0.0664,-0.16075 0.0992,-0.24133 -0.0328,0.0806 -0.0669,0.16053 -0.0992,0.24133 z m 0.54983,-1.30793 c 0.041,-0.0936 0.0819,-0.18729 0.12351,-0.2806 -0.0416,0.0933 -0.0825,0.18697 -0.12351,0.2806 z m 1.32601,-2.76779 c 0.046,-0.0881 0.0929,-0.17573 0.13954,-0.26355 -0.0466,0.0878 -0.0935,0.17541 -0.13954,0.26355 z m 0.70178,-1.29139 c 0.0377,-0.0668 0.0746,-0.13395 0.11266,-0.20051 -0.038,0.0666 -0.075,0.13375 -0.11266,0.20051 z m 1.57562,-2.58641 c 0.0468,-0.0713 0.0939,-0.14238 0.14108,-0.21342 -0.0472,0.071 -0.0943,0.14211 -0.14108,0.21342 z m 1.77094,-2.5125 c 0.0285,-0.0376 0.0577,-0.0746 0.0863,-0.11214 -0.0286,0.0375 -0.0578,0.0745 -0.0863,0.11214 z m 0.89143,-1.1374 c 0.0343,-0.0424 0.0684,-0.0849 0.10282,-0.12713 -0.0344,0.0423 -0.0686,0.0847 -0.10282,0.12713 z m 1.98178,-2.29134 c 0.0306,-0.0331 0.0613,-0.0662 0.092,-0.0992 -0.0307,0.033 -0.0614,0.0661 -0.092,0.0992 z m 3.19826,-3.13521 c 0.0285,-0.0253 0.0567,-0.0507 0.0853,-0.076 -0.0285,0.0252 -0.0568,0.0507 -0.0853,0.076 z m 5.99808,-4.50515 c 0.0216,-0.0136 0.0435,-0.0267 0.0651,-0.0403 -0.0216,0.0136 -0.0435,0.0267 -0.0651,0.0403 z"
       style="color:#000000;font-style:normal;font-variant:normal;font-weight:normal;font-stretch:normal;font-size:medium;line-height:normal;font-family:sans-serif;font-variant-ligatures:normal;font-variant-position:normal;font-variant-caps:normal;font-variant-numeric:normal;font-variant-alternates:normal;font-feature-settings:normal;text-indent:0;text-align:start;text-decoration:none;text-decoration-line:none;text-decoration-style:solid;text-decoration-color:#000000;letter-spacing:normal;word-spacing:normal;text-transform:none;writing-mode:lr-tb;direction:ltr;text-orientation:mixed;dominant-baseline:auto;baseline-shift:baseline;text-anchor:start;white-space:normal;shape-padding:0;clip-rule:nonzero;display:inline;overflow:visible;visibility:visible;opacity:0.5;isolation:auto;mix-blend-mode:normal;color-interpolation:sRGB;color-interpolation-filters:linearRGB;solid-color:#000000;solid-opacity:1;vector-effect:none;fill:#000000;fill-opacity:1;fill-rule:nonzero;stroke:none;stroke-width:23.8125;stroke-linecap:butt;stroke-linejoin:miter;stroke-miterlimit:4;stroke-dasharray:none;stroke-dashoffset:0;stroke-opacity:1;color-rendering:auto;image-rendering:auto;shape-rendering:auto;text-rendering:auto;enable-background:accumulate"
       inkscape:connector-curvature="0"
       sodipodi:nodetypes="ssscccccssssssscccccccccccccccccccccccccccccccccccccccccccccccccccccccccccccccccc" />
    <path
       id="path1021"
       d="m 2044.7787,61.19678 c 24.7003,0 44.9802,20.27836 44.9802,44.97865 0,24.70029 -20.2799,44.9802 -44.9802,44.9802 -7.6343,0 -14.8449,-1.93951 -21.1662,-5.34593 l 1.3097,55.89748 h -23.8125 L 1999.8,106.17543 c 0,0.34341 0.01,0.68567 0.013,1.02733 -0.01,-0.34169 -0.013,-0.68389 -0.013,-1.02733 0,-24.70029 20.2784,-44.97865 44.9787,-44.97865 z m 0,23.8125 c -11.831,0 -21.1662,9.33509 -21.1662,21.16615 0,11.83106 9.3352,21.1677 21.1662,21.1677 11.8311,0 21.1677,-9.33664 21.1677,-21.1677 0,-11.83106 -9.3366,-21.16615 -21.1677,-21.16615 z m -44.958,22.46995 c 0.01,0.3032 0.02,0.60569 0.035,0.90743 -0.015,-0.30168 -0.026,-0.60429 -0.035,-0.90743 z m 0.04,1.02319 c 0.017,0.33531 0.039,0.66963 0.064,1.00304 -0.025,-0.33347 -0.047,-0.66767 -0.064,-1.00304 z m 0.087,1.29088 c 0.021,0.25796 0.044,0.51528 0.069,0.77204 -0.025,-0.25679 -0.048,-0.51405 -0.069,-0.77204 z m 0.096,1.04076 c 0.034,0.32626 0.072,0.65142 0.1127,0.97565 -0.041,-0.32417 -0.079,-0.64945 -0.1127,-0.97565 z m 0.1401,1.17977 c 0.036,0.27546 0.075,0.55032 0.1162,0.82424 -0.041,-0.27398 -0.08,-0.54872 -0.1162,-0.82424 z m 0.154,1.07281 c 0.05,0.31927 0.1029,0.63738 0.1596,0.95446 -0.057,-0.31704 -0.1097,-0.63524 -0.1596,-0.95446 z m 0.2036,1.18907 c 0.047,0.253 0.095,0.50551 0.1462,0.75706 -0.051,-0.25159 -0.1,-0.50402 -0.1462,-0.75706 z m 0.2067,1.05317 c 0.067,0.31977 0.1364,0.63869 0.2103,0.95601 -0.074,-0.31722 -0.1433,-0.63634 -0.2103,-0.95601 z m 0.2175,0.98598 c 0.071,0.30462 0.1464,0.60775 0.2238,0.91003 -0.077,-0.30242 -0.1526,-0.60527 -0.2238,-0.91003 z m 0.2998,1.20096 c 0.068,0.25894 0.1381,0.51698 0.2108,0.77412 -0.073,-0.25702 -0.1428,-0.51531 -0.2108,-0.77412 z m 0.6759,2.30942 c 0.031,0.0973 0.063,0.1944 0.095,0.29146 -0.032,-0.097 -0.064,-0.19414 -0.095,-0.29146 z m 0.4868,1.42886 c 0.023,0.0648 0.046,0.13012 0.069,0.19482 -0.024,-0.0647 -0.046,-0.12999 -0.069,-0.19482 z m 0.5643,1.48828 c 0.032,0.0808 0.066,0.16075 0.099,0.24133 -0.033,-0.0806 -0.067,-0.16053 -0.099,-0.24133 z m 0.5498,1.30793 c 0.041,0.0936 0.082,0.18729 0.1235,0.2806 -0.042,-0.0933 -0.082,-0.18697 -0.1235,-0.2806 z m 1.326,2.76779 c 0.046,0.0881 0.093,0.17573 0.1396,0.26355 -0.047,-0.0878 -0.093,-0.17541 -0.1396,-0.26355 z m 0.7018,1.29139 c 0.038,0.0668 0.075,0.13395 0.1127,0.20051 -0.038,-0.0666 -0.075,-0.13375 -0.1127,-0.20051 z m 1.5756,2.58641 c 0.047,0.0713 0.094,0.14238 0.1411,0.21342 -0.047,-0.071 -0.094,-0.14211 -0.1411,-0.21342 z m 1.771,2.5125 c 0.028,0.0376 0.058,0.0746 0.086,0.11214 -0.029,-0.0375 -0.058,-0.0745 -0.086,-0.11214 z m 0.8914,1.1374 c 0.034,0.0424 0.068,0.0849 0.1028,0.12713 -0.034,-0.0423 -0.069,-0.0847 -0.1028,-0.12713 z m 1.9818,2.29134 c 0.031,0.0331 0.061,0.0662 0.092,0.0992 -0.031,-0.033 -0.061,-0.0661 -0.092,-0.0992 z m 3.1982,3.13521 c 0.028,0.0253 0.057,0.0507 0.085,0.076 -0.028,-0.0252 -0.057,-0.0507 -0.085,-0.076 z m 5.9981,4.50515 c 0.022,0.0136 0.043,0.0267 0.065,0.0403 -0.022,-0.0136 -0.043,-0.0267 -0.065,-0.0403 z"
       style="color:#000000;font-style:normal;font-variant:normal;font-weight:normal;font-stretch:normal;font-size:medium;line-height:normal;font-family:sans-serif;font-variant-ligatures:normal;font-variant-position:normal;font-variant-caps:normal;font-variant-numeric:normal;font-variant-alternates:normal;font-feature-settings:normal;text-indent:0;text-align:start;text-decoration:none;text-decoration-line:none;text-decoration-style:solid;text-decoration-color:#000000;letter-spacing:normal;word-spacing:normal;text-transform:none;writing-mode:lr-tb;direction:ltr;text-orientation:mixed;dominant-baseline:auto;baseline-shift:baseline;text-anchor:start;white-space:normal;shape-padding:0;clip-rule:nonzero;display:inline;overflow:visible;visibility:visible;opacity:0.5;isolation:auto;mix-blend-mode:normal;color-interpolation:sRGB;color-interpolation-filters:linearRGB;solid-color:#000000;solid-opacity:1;vector-effect:none;fill:#000000;fill-opacity:1;fill-rule:nonzero;stroke:none;stroke-width:23.8125;stroke-linecap:butt;stroke-linejoin:miter;stroke-miterlimit:4;stroke-dasharray:none;stroke-dashoffset:0;stroke-opacity:1;color-rendering:auto;image-rendering:auto;shape-rendering:auto;text-rendering:auto;enable-background:accumulate"
       inkscape:connector-curvature="0"
       sodipodi:nodetypes="ssscccccssssssscccccccccccccccccccccccccccccccccccccccccccccccccccccccccccccccccc" />
    <path
       style="color:#000000;font-style:normal;font-variant:normal;font-weight:normal;font-stretch:normal;font-size:medium;line-height:normal;font-family:sans-serif;font-variant-ligatures:normal;font-variant-position:normal;font-variant-caps:normal;font-variant-numeric:normal;font-variant-alternates:normal;font-feature-settings:normal;text-indent:0;text-align:start;text-decoration:none;text-decoration-line:none;text-decoration-style:solid;text-decoration-color:#000000;letter-spacing:normal;word-spacing:normal;text-transform:none;writing-mode:lr-tb;direction:ltr;text-orientation:mixed;dominant-baseline:auto;baseline-shift:baseline;text-anchor:start;white-space:normal;shape-padding:0;clip-rule:nonzero;display:inline;overflow:visible;visibility:visible;opacity:0.5;isolation:auto;mix-blend-mode:normal;color-interpolation:sRGB;color-interpolation-filters:linearRGB;solid-color:#000000;solid-opacity:1;vector-effect:none;fill:#000000;fill-opacity:1;fill-rule:nonzero;stroke:none;stroke-width:23.8125;stroke-linecap:butt;stroke-linejoin:miter;stroke-miterlimit:4;stroke-dasharray:none;stroke-dashoffset:0;stroke-opacity:1;color-rendering:auto;image-rendering:auto;shape-rendering:auto;text-rendering:auto;enable-background:accumulate"
       d="m 748.84575,61.19678 c -24.70028,0 -44.98072,20.27837 -44.98072,44.97865 0,24.70029 20.28044,44.9802 44.98072,44.9802 10.94984,0 21.02882,-3.98785 28.85922,-10.57713 l -16.87544,-16.87546 c -3.39101,2.30196 -7.50811,3.64009 -11.98378,3.64009 -11.83105,0 -21.16822,-9.33664 -21.16822,-21.1677 0,-11.83105 9.33717,-21.16615 21.16822,-21.16615 4.47593,0 8.59317,1.338233 11.98428,3.640087 L 777.706,71.773396 C 769.8755,65.184106 759.79598,61.19678 748.84575,61.19678 Z"
       id="path1023"
       inkscape:connector-curvature="0" />
    <path
       sodipodi:nodetypes="ssscccccssssssscccccccccccccccccccccccccccccccccccccccccccccccccccccccccccccccccc"
       inkscape:connector-curvature="0"
       style="color:#000000;font-style:normal;font-variant:normal;font-weight:normal;font-stretch:normal;font-size:medium;line-height:normal;font-family:sans-serif;font-variant-ligatures:normal;font-variant-position:normal;font-variant-caps:normal;font-variant-numeric:normal;font-variant-alternates:normal;font-feature-settings:normal;text-indent:0;text-align:start;text-decoration:none;text-decoration-line:none;text-decoration-style:solid;text-decoration-color:#000000;letter-spacing:normal;word-spacing:normal;text-transform:none;writing-mode:lr-tb;direction:ltr;text-orientation:mixed;dominant-baseline:auto;baseline-shift:baseline;text-anchor:start;white-space:normal;shape-padding:0;clip-rule:nonzero;display:inline;overflow:visible;visibility:visible;opacity:0.5;isolation:auto;mix-blend-mode:normal;color-interpolation:sRGB;color-interpolation-filters:linearRGB;solid-color:#000000;solid-opacity:1;vector-effect:none;fill:#000000;fill-opacity:1;fill-rule:nonzero;stroke:none;stroke-width:23.8125;stroke-linecap:butt;stroke-linejoin:miter;stroke-miterlimit:4;stroke-dasharray:none;stroke-dashoffset:0;stroke-opacity:1;color-rendering:auto;image-rendering:auto;shape-rendering:auto;text-rendering:auto;enable-background:accumulate"
       d="m 832.9886,151.15563 c -24.70028,0 -44.98019,-20.27836 -44.98019,-44.97865 0,-24.70029 20.27991,-44.9802 44.98019,-44.9802 7.63432,0 14.84487,1.93951 21.16617,5.34593 l -1.30962,-55.897478 h 23.8125 l 1.30962,95.531748 c 0,-0.34341 -0.006,-0.68567 -0.0134,-1.02733 0.008,0.34169 0.0134,0.68389 0.0134,1.02733 0,24.70029 -20.27838,44.97865 -44.97867,44.97865 z m 0,-23.8125 c 11.83106,0 21.16617,-9.33509 21.16617,-21.16615 0,-11.83106 -9.33511,-21.1677 -21.16617,-21.1677 -11.83105,0 -21.1677,9.33664 -21.1677,21.1677 0,11.83106 9.33665,21.16615 21.1677,21.16615 z m 44.95798,-22.46995 c -0.009,-0.3032 -0.0198,-0.60569 -0.0346,-0.90743 0.0148,0.30168 0.0258,0.60429 0.0346,0.90743 z m -0.0398,-1.02319 c -0.0174,-0.33531 -0.0393,-0.66963 -0.0641,-1.00304 0.0248,0.33347 0.0467,0.66767 0.0641,1.00304 z m -0.0873,-1.29088 c -0.0209,-0.25796 -0.044,-0.51528 -0.0693,-0.77204 0.0253,0.25679 0.0484,0.51405 0.0693,0.77204 z m -0.0956,-1.04076 c -0.0341,-0.32626 -0.0715,-0.65142 -0.11266,-0.97565 0.0412,0.32417 0.0786,0.64945 0.11266,0.97565 z m -0.14004,-1.17977 c -0.0362,-0.27546 -0.075,-0.55032 -0.11626,-0.82424 0.0413,0.27398 0.08,0.54872 0.11626,0.82424 z m -0.15399,-1.07281 c -0.05,-0.31927 -0.10292,-0.63738 -0.15968,-0.95446 0.0567,0.31704 0.1097,0.63524 0.15968,0.95446 z m -0.2036,-1.18907 c -0.0467,-0.253 -0.0953,-0.50551 -0.14626,-0.75706 0.051,0.25159 0.0996,0.50402 0.14626,0.75706 z m -0.20672,-1.05317 c -0.067,-0.31977 -0.13644,-0.63869 -0.21031,-0.95601 0.0738,0.31722 0.14329,0.63634 0.21031,0.95601 z m -0.21754,-0.98598 c -0.0711,-0.30462 -0.14642,-0.60775 -0.22376,-0.91003 0.0774,0.30242 0.15259,0.60527 0.22376,0.91003 z m -0.29974,-1.20096 c -0.0681,-0.25894 -0.13817,-0.51698 -0.21082,-0.77412 0.0726,0.25702 0.14274,0.51531 0.21082,0.77412 z m -0.67591,-2.30942 c -0.0314,-0.0973 -0.0631,-0.1944 -0.0951,-0.29146 0.032,0.097 0.0638,0.19414 0.0951,0.29146 z m -0.48681,-1.42886 c -0.0233,-0.0648 -0.0456,-0.13012 -0.0692,-0.19482 0.0236,0.0647 0.0459,0.12999 0.0692,0.19482 z m -0.5643,-1.48828 c -0.0324,-0.0808 -0.0664,-0.16075 -0.0992,-0.24133 0.0328,0.0806 0.0669,0.16053 0.0992,0.24133 z M 874.2254,88.3021 c -0.041,-0.0936 -0.0819,-0.18729 -0.12351,-0.2806 0.0416,0.0933 0.0825,0.18697 0.12351,0.2806 z m -1.32601,-2.76779 c -0.046,-0.0881 -0.0929,-0.17573 -0.13954,-0.26355 0.0466,0.0878 0.0935,0.17541 0.13954,0.26355 z m -0.70178,-1.29139 c -0.0377,-0.0668 -0.0746,-0.13395 -0.11266,-0.20051 0.038,0.0666 0.075,0.13375 0.11266,0.20051 z m -1.57562,-2.58641 c -0.0468,-0.0713 -0.0939,-0.14238 -0.14108,-0.21342 0.0472,0.071 0.0943,0.14211 0.14108,0.21342 z m -1.77094,-2.5125 c -0.0285,-0.0376 -0.0577,-0.0746 -0.0863,-0.11214 0.0286,0.0375 0.0578,0.0745 0.0863,0.11214 z m -0.89143,-1.1374 c -0.0343,-0.0424 -0.0684,-0.0849 -0.10282,-0.12713 0.0344,0.0423 0.0686,0.0847 0.10282,0.12713 z m -1.98178,-2.29134 c -0.0306,-0.0331 -0.0613,-0.0662 -0.092,-0.0992 0.0307,0.033 0.0614,0.0661 0.092,0.0992 z m -3.19826,-3.13521 c -0.0285,-0.0253 -0.0567,-0.0507 -0.0853,-0.076 0.0285,0.0252 0.0568,0.0507 0.0853,0.076 z m -5.99808,-4.50515 c -0.0216,-0.0136 -0.0435,-0.0267 -0.0651,-0.0403 0.0216,0.0136 0.0435,0.0267 0.0651,0.0403 z"
       id="path1030" />
    <path
       style="color:#000000;font-style:normal;font-variant:normal;font-weight:normal;font-stretch:normal;font-size:medium;line-height:normal;font-family:sans-serif;font-variant-ligatures:normal;font-variant-position:normal;font-variant-caps:normal;font-variant-numeric:normal;font-variant-alternates:normal;font-feature-settings:normal;text-indent:0;text-align:start;text-decoration:none;text-decoration-line:none;text-decoration-style:solid;text-decoration-color:#000000;letter-spacing:normal;word-spacing:normal;text-transform:none;writing-mode:lr-tb;direction:ltr;text-orientation:mixed;dominant-baseline:auto;baseline-shift:baseline;text-anchor:start;white-space:normal;shape-padding:0;clip-rule:nonzero;display:inline;overflow:visible;visibility:visible;opacity:0.5;isolation:auto;mix-blend-mode:normal;color-interpolation:sRGB;color-interpolation-filters:linearRGB;solid-color:#000000;solid-opacity:1;vector-effect:none;fill:#000000;fill-opacity:1;fill-rule:nonzero;stroke:none;stroke-width:90;stroke-linecap:butt;stroke-linejoin:miter;stroke-miterlimit:4;stroke-dasharray:none;stroke-dashoffset:0;stroke-opacity:1;color-rendering:auto;image-rendering:auto;shape-rendering:auto;text-rendering:auto;enable-background:accumulate"
       d="M 3610.2832 231.29492 C 3532.4842 231.29492 3466.2978 284.52661 3446.3965 356.29688 C 3442.417 370.64789 3440.2773 385.73648 3440.2773 401.29297 C 3440.2773 416.85227 3442.4176 431.94326 3446.3984 446.29688 C 3466.3026 518.06462 3532.4872 571.29687 3610.2832 571.29688 C 3651.8683 571.29688 3690.1307 556.08207 3719.7832 530.96094 L 3656.043 467.2207 C 3643.1387 476.11631 3627.4049 481.29688 3610.2832 481.29688 C 3582.3532 481.29688 3558.1023 467.5299 3543.8301 446.29688 L 3774.1602 446.29688 C 3778.1407 431.94326 3780.2813 416.85227 3780.2812 401.29297 C 3780.2812 385.73648 3778.1412 370.64789 3774.1621 356.29688 C 3754.2624 284.5267 3688.0821 231.29492 3610.2832 231.29492 z M 3610.2832 321.29492 C 3638.2158 321.29492 3662.4668 335.06267 3676.7363 356.29688 L 3543.8262 356.29688 C 3558.0979 335.06267 3582.3506 321.29492 3610.2832 321.29492 z "
       transform="scale(0.26458333)"
       id="path1097" />
    <path
       style="opacity:0.5;fill:#000000;fill-opacity:1;stroke:none;stroke-width:23.8125;stroke-miterlimit:4;stroke-dasharray:none"
       d="m 1061.3998,10.645345 c -24.7002,0 -44.9781,20.278369 -44.9781,44.978649 v 95.531636 h 23.8125 V 94.270215 h 21.1666 v -23.8125 h -21.1666 V 55.623994 c 0,-11.83105 9.3346,-21.166148 21.1656,-21.166148 h 10e-4 V 10.645345 Z"
       id="path1105"
       inkscape:connector-curvature="0" />
    <path
       style="color:#000000;font-style:normal;font-variant:normal;font-weight:normal;font-stretch:normal;font-size:medium;line-height:normal;font-family:sans-serif;font-variant-ligatures:normal;font-variant-position:normal;font-variant-caps:normal;font-variant-numeric:normal;font-variant-alternates:normal;font-feature-settings:normal;text-indent:0;text-align:start;text-decoration:none;text-decoration-line:none;text-decoration-style:solid;text-decoration-color:#000000;letter-spacing:normal;word-spacing:normal;text-transform:none;writing-mode:lr-tb;direction:ltr;text-orientation:mixed;dominant-baseline:auto;baseline-shift:baseline;text-anchor:start;white-space:normal;shape-padding:0;clip-rule:nonzero;display:inline;overflow:visible;visibility:visible;opacity:0.5;isolation:auto;mix-blend-mode:normal;color-interpolation:sRGB;color-interpolation-filters:linearRGB;solid-color:#000000;solid-opacity:1;vector-effect:none;fill:#000000;fill-opacity:1;fill-rule:nonzero;stroke:none;stroke-width:90;stroke-linecap:butt;stroke-linejoin:miter;stroke-miterlimit:4;stroke-dasharray:none;stroke-dashoffset:0;stroke-opacity:1;color-rendering:auto;image-rendering:auto;shape-rendering:auto;text-rendering:auto;enable-background:accumulate"
       d="M 4267.5957 231.29492 C 4174.2402 231.29492 4097.5918 307.93756 4097.5918 401.29297 C 4097.5918 465.79355 4134.1853 522.31144 4187.5938 551.0918 L 4181.0996 551.0918 L 4187.6523 553.9707 C 4187.6199 553.01591 4187.5977 552.05756 4187.5977 551.09375 C 4211.4895 563.96759 4238.7424 571.29688 4267.5957 571.29688 C 4296.4498 571.29688 4323.7022 563.96646 4347.5938 551.0918 C 4347.5938 595.80758 4312.3136 631.08984 4267.5977 631.08984 L 4267.5938 631.08984 C 4236.412 631.08984 4209.8353 613.92324 4196.5938 588.375 L 4118.3887 632.18164 C 4147.345 684.99687 4203.5319 721.08984 4267.5938 721.08984 L 4267.5977 721.08984 C 4360.9531 721.08984 4437.5938 644.44719 4437.5938 551.0918 L 4437.5938 401.29297 C 4437.5938 307.93756 4360.9512 231.29492 4267.5957 231.29492 z M 4267.5957 321.29492 C 4312.3113 321.29492 4347.5937 356.57717 4347.5938 401.29297 C 4347.5938 446.00879 4312.3113 481.29688 4267.5957 481.29688 C 4222.8797 481.29688 4187.5918 446.00879 4187.5918 401.29297 C 4187.5918 356.57717 4222.8797 321.29492 4267.5957 321.29492 z "
       transform="scale(0.26458333)"
       id="path1114" />
    <path
       style="opacity:0.5;fill:#000000;fill-opacity:1;stroke:none;stroke-width:90;stroke-miterlimit:4;stroke-dasharray:none"
       d="M 4503.5938 40.234375 L 4503.5938 401.29297 L 4503.5938 571.29688 L 4593.5938 571.29688 L 4593.5938 401.29297 C 4593.5938 356.57719 4628.8739 321.29492 4673.5898 321.29492 C 4718.3054 321.29492 4753.5957 356.57719 4753.5957 401.29297 L 4754.0801 401.29297 L 4754.0801 571.29688 L 4843.1113 571.29688 L 4843.1113 401.29297 L 4843.5957 401.29297 C 4843.5957 307.93758 4766.9453 231.29492 4673.5898 231.29492 C 4644.7367 231.29492 4617.4844 238.6232 4593.5938 251.49609 L 4593.5938 40.234375 L 4503.5938 40.234375 z "
       transform="scale(0.26458333)"
       id="path1128" />
    <path
       inkscape:connector-curvature="0"
       id="path1144"
       d="m 1308.747,61.196771 h 23.8125 v 89.958979 h -23.8125 z"
       style="opacity:0.5;fill:#000000;fill-opacity:1;stroke:none;stroke-width:23.81250191;stroke-miterlimit:4;stroke-dasharray:none" />
    <path
       style="color:#000000;font-style:normal;font-variant:normal;font-weight:normal;font-stretch:normal;font-size:medium;line-height:normal;font-family:sans-serif;font-variant-ligatures:normal;font-variant-position:normal;font-variant-caps:normal;font-variant-numeric:normal;font-variant-alternates:normal;font-feature-settings:normal;text-indent:0;text-align:start;text-decoration:none;text-decoration-line:none;text-decoration-style:solid;text-decoration-color:#000000;letter-spacing:normal;word-spacing:normal;text-transform:none;writing-mode:lr-tb;direction:ltr;text-orientation:mixed;dominant-baseline:auto;baseline-shift:baseline;text-anchor:start;white-space:normal;shape-padding:0;clip-rule:nonzero;display:inline;overflow:visible;visibility:visible;opacity:0.5;isolation:auto;mix-blend-mode:normal;color-interpolation:sRGB;color-interpolation-filters:linearRGB;solid-color:#000000;solid-opacity:1;vector-effect:none;fill:#000000;fill-opacity:1;fill-rule:nonzero;stroke:none;stroke-width:23.8125;stroke-linecap:butt;stroke-linejoin:miter;stroke-miterlimit:4;stroke-dasharray:none;stroke-dashoffset:0;stroke-opacity:1;color-rendering:auto;image-rendering:auto;shape-rendering:auto;text-rendering:auto;enable-background:accumulate"
       d="m 1368.7273,61.19678 v 89.95885 h 0.1302 c -2.3235,9.17884 -10.5259,15.82022 -20.5052,15.82022 -2.848,0 -5.5503,-0.54167 -8.0129,-1.52859 l -12.9274,20.1135 c 6.2671,3.33183 13.3961,5.22759 20.9403,5.22759 22.8922,0 41.9825,-17.41929 44.6552,-39.63272 V 61.19678 Z"
       id="path1146"
       inkscape:connector-curvature="0" />
    <path
       style="opacity:0.5;fill:#000000;fill-opacity:1;stroke:none;stroke-width:90;stroke-miterlimit:4;stroke-dasharray:none"
       d="M 5384.8516 40.234375 L 5384.8516 274.94141 L 5382.5078 276.29492 C 5383.2717 277.61794 5384.057 278.92215 5384.8516 280.2168 L 5384.8516 571.29688 L 5474.8516 571.29688 L 5474.8516 445.33398 C 5497.4487 407.36238 5545.1578 394.84302 5583.5586 417.01367 C 5622.2833 439.37158 5635.2055 487.57187 5612.8477 526.29688 L 5612.5898 571.29688 L 5690.7891 571.29688 C 5737.4666 490.44874 5709.4068 385.75 5628.5586 339.07227 C 5625.9819 337.58459 5623.3745 336.19596 5620.752 334.85938 C 5696.9398 286.55291 5722.4582 185.09878 5676.9609 106.29492 L 5598.7617 106.29492 L 5599.0176 151.29492 C 5621.3754 190.01993 5608.4532 238.22022 5569.7285 260.57812 C 5537.9788 278.90879 5499.8741 273.51376 5474.8516 249.63867 L 5474.8516 40.234375 L 5384.8516 40.234375 z "
       transform="scale(0.26458333)"
       id="path1178" />
    <path
       style="opacity:0.5;fill:#000000;fill-opacity:1;stroke:none;stroke-width:90;stroke-miterlimit:4;stroke-dasharray:none"
       d="M 5814.7734 40.234375 L 5814.7734 401.30078 L 5814.7051 401.30078 C 5814.7051 494.65625 5891.3477 571.29688 5984.7031 571.29688 L 6051.6523 571.29688 L 6051.6523 481.29688 L 5984.7031 481.29688 C 5941.0701 481.29688 5906.4261 447.70324 5904.7734 404.53125 L 5904.7734 40.234375 L 5814.7734 40.234375 z "
       transform="scale(0.26458333)"
       id="path1237" />
    <path
       id="path1291"
       d="m 1787.1663,61.196771 v 44.978659 44.9802 h 23.8125 v -44.9802 c 0,-11.83105 9.3346,-21.16615 21.1657,-21.16615 11.831,0 21.1682,9.3351 21.1682,21.16615 h 0.1281 v 44.9802 h 23.5562 v -44.9802 h 0.1282 c 0,-24.70028 -20.2804,-44.97865 -44.9807,-44.97865 -7.6341,0 -14.8446,1.938941 -21.1657,5.344893 v -5.344902 z"
       style="opacity:0.5;fill:#000000;fill-opacity:1;stroke:none;stroke-width:23.8125;stroke-miterlimit:4;stroke-dasharray:none"
       inkscape:connector-curvature="0"
       sodipodi:nodetypes="ccccssccccccsccc" />
    <path
       style="opacity:0.5;fill:#000000;fill-opacity:1;stroke:none;stroke-width:90;stroke-miterlimit:4;stroke-dasharray:none"
       d="M 6099.8633 231.29492 L 6099.8633 401.29297 L 6099.8633 571.29688 L 6189.8633 571.29688 L 6189.8633 401.29297 C 6189.8633 356.57719 6225.1434 321.29492 6269.8594 321.29492 C 6314.575 321.29492 6349.8652 356.57719 6349.8652 401.29297 L 6350.3496 401.29297 L 6350.3496 571.29688 L 6439.3809 571.29688 L 6439.3809 401.29297 L 6439.8652 401.29297 L 6440.4199 401.29297 C 6440.4199 356.57719 6475.7004 321.29492 6520.416 321.29492 C 6565.132 321.29492 6600.4219 356.57719 6600.4219 401.29297 L 6600.4219 571.29688 L 6690.4219 571.29688 L 6690.4219 401.29297 C 6690.4219 307.93758 6613.7715 231.29492 6520.416 231.29492 C 6471.0163 231.29492 6426.3008 252.75927 6395.1406 286.80078 C 6363.978 252.75927 6319.2593 231.29492 6269.8594 231.29492 C 6241.0061 231.29492 6213.7541 238.6232 6189.8633 251.49609 L 6189.8633 231.29492 L 6099.8633 231.29492 z "
       transform="scale(0.26458333)"
       id="path1297" />
    <path
       inkscape:connector-curvature="0"
       id="path1311"
       d="m 1935.2373,61.196771 c -24.7003,0 -44.9804,20.27823 -44.9804,44.978509 0,24.70029 20.2801,44.98047 44.9804,44.98047 24.7003,0 44.9785,-20.28018 44.9785,-44.98047 0,-24.700279 -20.2782,-44.978509 -44.9785,-44.978509 z m 0,23.8125 c 11.8311,0 21.166,9.33496 21.166,21.166009 0,11.83106 -9.3349,21.16797 -21.166,21.16797 -11.831,0 -21.1679,-9.33691 -21.1679,-21.16797 0,-11.831049 9.3369,-21.166009 21.1679,-21.166009 z"
       style="color:#000000;font-style:normal;font-variant:normal;font-weight:normal;font-stretch:normal;font-size:medium;line-height:normal;font-family:sans-serif;font-variant-ligatures:normal;font-variant-position:normal;font-variant-caps:normal;font-variant-numeric:normal;font-variant-alternates:normal;font-feature-settings:normal;text-indent:0;text-align:start;text-decoration:none;text-decoration-line:none;text-decoration-style:solid;text-decoration-color:#000000;letter-spacing:normal;word-spacing:normal;text-transform:none;writing-mode:lr-tb;direction:ltr;text-orientation:mixed;dominant-baseline:auto;baseline-shift:baseline;text-anchor:start;white-space:normal;shape-padding:0;clip-rule:nonzero;display:inline;overflow:visible;visibility:visible;opacity:0.5;isolation:auto;mix-blend-mode:normal;color-interpolation:sRGB;color-interpolation-filters:linearRGB;solid-color:#000000;solid-opacity:1;vector-effect:none;fill:#000000;fill-opacity:1;fill-rule:nonzero;stroke:none;stroke-width:23.8125;stroke-linecap:butt;stroke-linejoin:miter;stroke-miterlimit:4;stroke-dasharray:none;stroke-dashoffset:0;stroke-opacity:1;color-rendering:auto;image-rendering:auto;shape-rendering:auto;text-rendering:auto;enable-background:accumulate" />
    <path
       style="opacity:0.5;fill:#000000;fill-opacity:1;stroke:none;stroke-width:90;stroke-miterlimit:4;stroke-dasharray:none"
       d="M 7938.6445 231.29492 L 7938.6445 401.29297 L 7938.6445 571.29688 L 8028.6445 571.29688 L 8028.6445 401.29297 C 8028.6445 356.57719 8063.9247 321.29492 8108.6406 321.29492 C 8122.9027 321.29492 8136.1979 324.89651 8147.7031 331.23633 L 8212.1562 266.7832 C 8183.4171 244.56882 8147.4783 231.29492 8108.6406 231.29492 C 8079.7873 231.29492 8052.5353 238.6232 8028.6445 251.49609 L 8028.6445 231.29492 L 7938.6445 231.29492 z "
       transform="scale(0.26458333)"
       id="path1313" />
    <path
       style="opacity:0.5;fill:#000000;fill-opacity:1;stroke:none;stroke-width:90;stroke-miterlimit:4;stroke-dasharray:none"
       d="M 8734.7734 40.234375 L 8734.7734 141.29492 L 8667.1035 141.29492 L 8667.1035 231.29492 L 8734.7734 231.29492 L 8734.7734 401.30078 L 8734.7051 401.30078 C 8734.7051 494.65625 8811.3477 571.29688 8904.7031 571.29688 L 8904.7031 481.29688 C 8904.7031 481.29688 8826.4262 447.70321 8824.7734 404.53125 L 8824.7734 231.29492 L 8893.1035 231.29492 L 8893.1035 141.29492 L 8824.7734 141.29492 L 8824.7734 40.234375 L 8734.7734 40.234375 z "
       transform="scale(0.26458333)"
       id="path1323" />
    <path
       style="opacity:0.5;fill:#000000;fill-opacity:1;stroke:none;stroke-width:90;stroke-miterlimit:4;stroke-dasharray:none"
       d="M 9831.2246 40.234375 L 9831.2246 130.23438 L 10051.756 130.23438 L 10051.756 571.29688 L 10141.756 571.29688 L 10141.756 130.23438 L 10362.289 130.23438 L 10362.289 40.234375 L 10141.756 40.234375 L 10051.756 40.234375 L 9831.2246 40.234375 z "
       transform="scale(0.26458333)"
       id="path1336" />
    <path
       style="color:#000000;font-style:normal;font-variant:normal;font-weight:normal;font-stretch:normal;font-size:medium;line-height:normal;font-family:sans-serif;font-variant-ligatures:normal;font-variant-position:normal;font-variant-caps:normal;font-variant-numeric:normal;font-variant-alternates:normal;font-feature-settings:normal;text-indent:0;text-align:start;text-decoration:none;text-decoration-line:none;text-decoration-style:solid;text-decoration-color:#000000;letter-spacing:normal;word-spacing:normal;text-transform:none;writing-mode:lr-tb;direction:ltr;text-orientation:mixed;dominant-baseline:auto;baseline-shift:baseline;text-anchor:start;white-space:normal;shape-padding:0;clip-rule:nonzero;display:inline;overflow:visible;visibility:visible;opacity:0.5;isolation:auto;mix-blend-mode:normal;color-interpolation:sRGB;color-interpolation-filters:linearRGB;solid-color:#000000;solid-opacity:1;vector-effect:none;fill:#000000;fill-opacity:1;fill-rule:nonzero;stroke:none;stroke-width:23.8125;stroke-linecap:butt;stroke-linejoin:miter;stroke-miterlimit:4;stroke-dasharray:none;stroke-dashoffset:0;stroke-opacity:1;color-rendering:auto;image-rendering:auto;shape-rendering:auto;text-rendering:auto;enable-background:accumulate"
       d="m 2690.0748,38.947974 v 23.8125 h 33.5171 c 11.8311,0 21.1662,9.334534 21.1662,21.165634 0,11.831 -9.3351,21.168212 -21.1662,21.168222 h -33.5171 v 23.8125 h 33.5171 0.4705 v -0.006 c 24.4863,-0.25587 44.5082,-20.43194 44.5082,-44.975032 0,-24.543088 -20.0219,-44.716088 -44.5082,-44.971932 v -0.0062 h -0.4705 z"
       id="path1343"
       inkscape:connector-curvature="0" />
    <path
       style="opacity:0.5;fill:#000000;fill-opacity:1;stroke:none;stroke-width:23.8125;stroke-miterlimit:4;stroke-dasharray:none"
       d="m 2694.5346,67.727649 v 23.8125 c 7.6679,0 14.2836,3.923488 17.9927,9.903791 l 1.4899,3.40392 -30.658,84.16954 -6.8554,12.1605 h 27.328 l 24.2147,-66.47966 18.7156,39.82186 v -0.001 c 10.3256,22.29445 29.5764,32.60278 51.9678,22.40639 l -9.8687,-21.67155 c -10.7675,4.9031 -15.6474,-0.0973 -20.5507,-10.86445 0,-2.7e-4 -0.4109,0.32938 0,0.002 v -0.002 -5.2e-4 -5.2e-4 l -28.7761,-61.22882 0.1149,-0.31574 -0.3654,-0.21704 -2.8877,-6.302457 c -0.5802,-1.467589 -1.2375,-2.897172 -1.9637,-4.286044 l -0.8568,-1.870686 -0.1389,0.06511 c -7.8152,-13.417394 -22.3673,-22.505085 -38.9022,-22.505085 z"
       id="path1365"
       inkscape:connector-curvature="0" />
    <path
       style="opacity:0.5;fill:#000000;fill-opacity:1;stroke:none;stroke-width:90;stroke-miterlimit:4;stroke-dasharray:none"
       d="M 10930.887 259.83203 L 10930.887 349.83203 C 10959.868 349.83203 10984.873 364.66092 10998.891 387.26367 L 11001.518 393.26758 L 11001.557 393.20117 L 11032.08 458.28906 C 11000.333 522.36873 10937.557 648.0767 10898.234 719.99023 C 10890.24 734.61051 10874.912 762.41797 10874.912 762.41797 L 10977.977 762.35742 L 11080.199 561.13867 L 11128.287 663.45703 L 11128.287 663.45312 C 11167.313 747.71561 11240.072 786.67621 11324.701 748.13867 L 11287.402 666.23047 C 11246.706 684.76187 11228.26 665.86271 11209.729 625.16797 L 11209.729 625.16602 L 11209.729 625.16406 L 11100.969 393.74805 L 11101.402 392.55469 L 11100.021 391.73438 L 11089.109 367.91406 C 11086.916 362.36728 11084.431 356.96412 11081.686 351.71484 L 11078.449 344.64453 L 11077.924 344.89062 C 11048.386 294.17933 10993.385 259.83203 10930.891 259.83203 L 10930.887 259.83203 z "
       transform="scale(0.26458333)"
       id="path1451" />
    <path
       inkscape:connector-curvature="0"
       id="path1460"
       d="m 2891.6023,38.055557 v 23.8125 h 33.5171 c 11.8311,0 21.1662,9.334534 21.1662,21.165634 0,11.831002 -9.3351,21.168209 -21.1662,21.168219 h -33.5171 v 23.81249 h 33.5171 0.4705 v -0.006 c 24.4863,-0.25587 44.5082,-20.43193 44.5082,-44.975019 0,-24.543088 -20.0219,-44.716088 -44.5082,-44.971932 v -0.0062 h -0.4705 z"
       style="color:#000000;font-style:normal;font-variant:normal;font-weight:normal;font-stretch:normal;font-size:medium;line-height:normal;font-family:sans-serif;font-variant-ligatures:normal;font-variant-position:normal;font-variant-caps:normal;font-variant-numeric:normal;font-variant-alternates:normal;font-feature-settings:normal;text-indent:0;text-align:start;text-decoration:none;text-decoration-line:none;text-decoration-style:solid;text-decoration-color:#000000;letter-spacing:normal;word-spacing:normal;text-transform:none;writing-mode:lr-tb;direction:ltr;text-orientation:mixed;dominant-baseline:auto;baseline-shift:baseline;text-anchor:start;white-space:normal;shape-padding:0;clip-rule:nonzero;display:inline;overflow:visible;visibility:visible;opacity:0.5;isolation:auto;mix-blend-mode:normal;color-interpolation:sRGB;color-interpolation-filters:linearRGB;solid-color:#000000;solid-opacity:1;vector-effect:none;fill:#000000;fill-opacity:1;fill-rule:nonzero;stroke:none;stroke-width:23.8125;stroke-linecap:butt;stroke-linejoin:miter;stroke-miterlimit:4;stroke-dasharray:none;stroke-dashoffset:0;stroke-opacity:1;color-rendering:auto;image-rendering:auto;shape-rendering:auto;text-rendering:auto;enable-background:accumulate" />
    <path
       id="path1463"
       d="m 2807.5531,10.645345 v 23.812501 h 58.349 V 151.15563 h 23.8125 V 34.457846 h 58.3493 V 10.645345 h -58.3493 -23.8125 z"
       style="opacity:0.5;fill:#000000;fill-opacity:1;stroke:none;stroke-width:23.8125;stroke-miterlimit:4;stroke-dasharray:none"
       inkscape:connector-curvature="0" />
    <g
       id="g1506"
       transform="translate(-9.525,570.44167)"
       inkscape:export-xdpi="33.321625"
       inkscape:export-ydpi="33.321625">
      <rect
         y="-935.35486"
         x="3025.5039"
         height="331.58649"
         width="331.58649"
         id="rect815"
         style="opacity:1;fill:#00bcd4;fill-opacity:1;stroke-width:0.28105396" />
      <g
         style="stroke-width:0.79538107"
         transform="matrix(1.257259,0,0,1.257259,-683.19899,-899.25659)"
         id="g1486">
        <path
           id="path1465"
           d="m 3074.729,68.747224 v 23.812499 c 7.6679,0 14.2838,3.923478 17.9927,9.903787 l 0.6951,1.58854 0.01,-0.0176 8.0759,17.22118 c -8.3997,16.95441 -25.0092,50.21464 -35.4134,69.24176 -2.1151,3.86828 -6.1706,11.22568 -6.1706,11.22568 l 27.2693,-0.016 27.0462,-53.23912 12.7233,27.07173 v -0.001 c 10.3256,22.29445 29.5764,32.60277 51.9678,22.40638 l -9.8687,-21.67154 c -10.7674,4.9031 -15.6479,-0.0973 -20.5509,-10.86446 v -5.1e-4 -5.2e-4 l -28.7761,-61.22882 0.1146,-0.31574 -0.3654,-0.21704 -2.8872,-6.302463 c -0.5802,-1.467585 -1.2377,-2.897171 -1.964,-4.286043 l -0.8564,-1.870687 -0.1389,0.06511 c -7.8153,-13.417362 -22.3676,-22.505085 -38.9025,-22.505085 z"
           style="opacity:1;fill:#424242;fill-opacity:1;stroke:none;stroke-width:18.94001198;stroke-miterlimit:4;stroke-dasharray:none"
           inkscape:connector-curvature="0" />
        <path
           inkscape:connector-curvature="0"
           id="path1467"
           transform="matrix(0.26458333,0,0,0.26458333,91.016667,492.125)"
           d="m 11401.705,-1716.1699 h -126.678 v 90 h 126.678 c 44.716,0 79.998,35.2802 79.998,79.9961 0,25.5171 -11.5,47.9515 -29.676,62.5235 l 44.145,78.5156 c 45.435,-30.6283 75.531,-82.5486 75.531,-141.041 0,-92.7613 -75.672,-169.0057 -168.219,-169.9727 v -0.023 z m -126.678,250.0039 v 90 h 76.067 l 12.906,-25.8145 -30.205,-64.1855 z"
           style="color:#000000;font-style:normal;font-variant:normal;font-weight:normal;font-stretch:normal;font-size:medium;line-height:normal;font-family:sans-serif;font-variant-ligatures:normal;font-variant-position:normal;font-variant-caps:normal;font-variant-numeric:normal;font-variant-alternates:normal;font-feature-settings:normal;text-indent:0;text-align:start;text-decoration:none;text-decoration-line:none;text-decoration-style:solid;text-decoration-color:#000000;letter-spacing:normal;word-spacing:normal;text-transform:none;writing-mode:lr-tb;direction:ltr;text-orientation:mixed;dominant-baseline:auto;baseline-shift:baseline;text-anchor:start;white-space:normal;shape-padding:0;clip-rule:nonzero;display:inline;overflow:visible;visibility:visible;opacity:1;isolation:auto;mix-blend-mode:normal;color-interpolation:sRGB;color-interpolation-filters:linearRGB;solid-color:#000000;solid-opacity:1;vector-effect:none;fill:#ffa726;fill-opacity:1;fill-rule:nonzero;stroke:none;stroke-width:71.58429718;stroke-linecap:butt;stroke-linejoin:miter;stroke-miterlimit:4;stroke-dasharray:none;stroke-dashoffset:0;stroke-opacity:1;filter:url(#filter1497);color-rendering:auto;image-rendering:auto;shape-rendering:auto;text-rendering:auto;enable-background:accumulate" />
        <path
           inkscape:connector-curvature="0"
           style="opacity:1;fill:#ffffff;fill-opacity:1;stroke:none;stroke-width:18.94001198;stroke-miterlimit:4;stroke-dasharray:none"
           d="M 2984.4764,4.4237423 V 28.236243 h 58.349 V 144.93402 h 23.8125 V 28.236243 h 58.3493 V 4.4237423 h -58.3493 -23.8125 z"
           id="path1480" />
      </g>
    </g>
  </g>
</svg>
